<svg xmlns="http://www.w3.org/2000/svg" viewBox="0 0 100 100" width="32" height="32">
  <defs>
    <style>
      /* Default (Light Mode) - Black */
      .pin-outline { fill: none; stroke: #000000; stroke-width: 3; stroke-linecap: round; stroke-linejoin: round; }
      .pin-fill { fill: #000000; }
      .grad-cap { fill: #000000; }
      .checkmark { fill: none; stroke: #000000; }
      .ripple { fill: none; stroke: #000000; stroke-width: 2; opacity: 0.6; }
      
      /* Dark Mode - White */
      @media (prefers-color-scheme: dark) {
        .pin-outline { stroke: #ffffff; }
        .pin-fill { fill: #ffffff; }
        .grad-cap { fill: #ffffff; }
        .checkmark { stroke: #ffffff; }
        .ripple { stroke: #ffffff; }
      }
    </style>
  </defs>
  
  <!-- Location Pin Shape -->
  <path class="pin-outline" d="M50 15 C35 15, 25 25, 25 40 C25 55, 50 80, 50 80 C50 80, 75 55, 75 40 C75 25, 65 15, 50 15 Z"/>
  
  <!-- Pin Fill -->
  <path class="pin-fill" d="M50 18 C38 18, 28 27, 28 40 C28 52, 50 75, 50 75 C50 75, 72 52, 72 40 C72 27, 62 18, 50 18 Z"/>
  
  <!-- Graduation Cap -->
  <rect class="grad-cap" x="40" y="30" width="20" height="8" rx="1"/>
  <rect class="grad-cap" x="38" y="32" width="24" height="2"/>
  <!-- Tassel -->
  <line class="pin-outline" x1="58" y1="32" x2="62" y2="28"/>
  <circle class="grad-cap" cx="62" cy="28" r="1.5"/>
  
  <!-- Checkmark -->
  <path class="checkmark" d="M35 50 L42 57 L52 47" stroke-width="3" fill="none" stroke-linecap="round" stroke-linejoin="round"/>
  
  <!-- Ripples at bottom -->
  <circle class="ripple" cx="50" cy="75" r="8"/>
  <circle class="ripple" cx="50" cy="75" r="12"/>
</svg>






